<svg id="Solid" height="512" viewBox="0 0 512 512" width="512" xmlns="http://www.w3.org/2000/svg"><path d="m296 480h-80a8 8 0 0 1 -6.993-11.886l.444-.8a181.273 181.273 0 0 0 21.3-112.594c-13.969 22.337-28.08 40.51-42.087 54.184a86.893 86.893 0 0 1 -46.375 28.563 88.635 88.635 0 0 1 -20.95 2.523c-38.033 0-72.277-24.783-81.3-61.9a79.8 79.8 0 0 1 3.536-48.357 79.79 79.79 0 0 1 -25.335-41.339c-10.657-43.855 17.87-88.573 63.592-99.685a86.9 86.9 0 0 1 54.311 4.094 223.227 223.227 0 0 1 24.1 9.032 242.5 242.5 0 0 1 -15.573-24.3 96.329 96.329 0 0 1 -16.67-54.868c0-49.994 36.716-90.667 81.846-90.667a76.648 76.648 0 0 1 46.154 15.774 76.648 76.648 0 0 1 46.154-15.774c45.13 0 81.846 40.673 81.846 90.667a96.329 96.329 0 0 1 -16.674 54.872 242.5 242.5 0 0 1 -15.573 24.3 223.227 223.227 0 0 1 24.1-9.032 86.881 86.881 0 0 1 54.311-4.094c45.722 11.112 74.249 55.83 63.592 99.684a79.8 79.8 0 0 1 -25.336 41.339 79.8 79.8 0 0 1 3.536 48.357c-9.02 37.117-43.268 61.9-81.3 61.9a88.581 88.581 0 0 1 -20.95-2.522 86.9 86.9 0 0 1 -46.375-28.564c-14.007-13.674-28.118-31.847-42.087-54.184a181.278 181.278 0 0 0 21.3 112.595l.444.8a8 8 0 0 1 -6.988 11.882z"/></svg>